<svg preserveAspectRatio="xMidYMid meet" data-bbox="23.96 20.001 152.08 160.001" xmlns="http://www.w3.org/2000/svg" width="200" height="200" viewBox="23.96 20.001 152.08 160.001" data-type="color" role="presentation" aria-hidden="true" >
    <g>
        <path style="fill:#afcedb;" d="M163.427 27.721c-.83-.513-1.641-.941-2.457-1.394.003-.081.013-.163.016-.244.119-3.652-4.067-5.495-7.072-4.616-.547.16-1.041.361-1.575.531-1.392-1.88-4.285-2.674-6.479-1.318-.193.119-.368.26-.558.382-21.359-2.25-37.176 17.016-46.362 38.578a80.131 80.131 0 0 0-1.977 3.282c-3.522 5.535-6.265 11.602-9.052 17.651a240.177 240.177 0 0 0-1.027-7.732c-2.527-17.054-8.181-38.787-22.671-49.725-2.034-1.535-4.909-1.795-7.016-.196-.28.212-.52.444-.789.662C40.76 17.723 26.93 25.91 24.489 44.238c-1.5 11.263.166 26.5 5.32 39.211 3.37 22.874 13.152 46.59 26.373 66.361 1.545 2.544 3.183 5.049 5.057 7.457.279.358.589.643.911.889 5.975 7.813 12.448 14.839 19.254 20.604 1.909 1.616 4.591 1.6 6.631.266 6.192-4.051 14.422-10.961 13.987-17.266.97-.501 1.93-1.065 2.883-1.659.043-.019.087-.025.13-.046 17.553-8.491 30.088-28.871 40.365-44.552 2.587-3.946 5.736-8.596 8.857-13.625 17.523-20.954 33.945-58.792 9.17-74.157zM40.562 71.493c-.836-1.556-1.659-3.119-2.552-4.646a4.443 4.443 0 0 0-.914-1.091c-.524-2.173-.998-4.371-1.34-6.627-1.072-7.067-1.293-14.738 1.467-21.446a9.787 9.787 0 0 1 2.009-3.105c-3.52 12.67-2.02 24.814 1.362 36.794-.008.04-.024.08-.032.121zm33.024 65.761c-.036.228-.095.391-.138.6-1.291-4.448-2.278-9.061-3.065-13.624.841.901 1.961 1.423 3.172 1.619.533 3.791.634 7.622.031 11.405zM132 32.798a58.912 58.912 0 0 0-10.687 11.427c-.868-.236-1.739-.325-2.611-.336 3.883-4.957 8.292-8.901 13.298-11.091zm.103 22.793c-.084-.16-.203-.268-.299-.409 1.662-4.089 3.504-8.036 5.64-11.696a575.626 575.626 0 0 1-4.819 13.231c-.178-.373-.33-.76-.522-1.126zm8.379 16.62a517.692 517.692 0 0 0-4.52 4.022c2.912-7.675 5.741-15.379 8.425-23.132a4.703 4.703 0 0 0 1.678 2.007c-1.52 5.729-3.396 11.44-5.583 17.103zm8.26-29.768a44.028 44.028 0 0 0-1.5 2.185c.783-2.391 1.567-4.781 2.307-7.186-.21 1.668-.53 3.334-.807 5.001zm16.233 13.711c-.532-.402-1.101-.733-1.714-.917.567-3.143.996-6.356 1.269-9.652 1.009 3.206 1.069 6.789.445 10.569z" data-color="1"></path>
    </g>
</svg>